<?xml version="1.0" encoding="utf-8"?>
<!-- Generator: Adobe Illustrator 19.0.0, SVG Export Plug-In . SVG Version: 6.00 Build 0)  -->
<svg version="1.1" id="Layer_1" xmlns="http://www.w3.org/2000/svg" xmlns:xlink="http://www.w3.org/1999/xlink" x="0px" y="0px"
	 viewBox="-85.4 346.8 300 100" style="enable-background:new -85.4 346.8 300 100;" xml:space="preserve">
<style type="text/css">
	.st0{fill:#2E9F38;}
</style>
<g id="XMLID_41_">
	<path id="XMLID_42_" class="st0" d="M-44,367.6H-26v31.6c0,6.7-0.6,11.7-1.8,15.2s-3.5,6.4-7.1,8.8c-3.5,2.4-8.2,3.6-13.7,3.6
		c-5.9,0-10.4-0.8-13.7-2.4c-3.2-1.6-5.7-3.9-7.5-7c-1.7-3.1-2.8-6.8-3.1-11.4l17.2-2.4c0,2.6,0.2,4.5,0.7,5.7
		c0.4,1.3,1.2,2.3,2.1,3c0.7,0.5,1.6,0.8,2.9,0.8c2,0,3.5-0.8,4.4-2.3c0.9-1.5,1.4-4,1.4-7.5L-44,367.6L-44,367.6z"/>
	<path id="XMLID_44_" class="st0" d="M-13.3,367.6H4.8v58.3h-18.1V367.6z"/>
	<path id="XMLID_46_" class="st0" d="M17.7,367.6H66V380H35.6v9.3h28v11.9h-28v11.5h31.1v13.2H17.6L17.7,367.6L17.7,367.6z"/>
	<path id="XMLID_48_" class="st0" d="M114.4,367.6h18v34.7c0,3.5-0.5,6.7-1.6,9.7s-2.7,5.7-5,8c-2.3,2.3-4.7,3.9-7.2,4.8
		c-3.5,1.3-7.7,2-12.6,2c-2.8,0-6-0.2-9.3-0.6c-3.4-0.4-6.1-1.2-8.4-2.4c-2.3-1.2-4.3-2.8-6.2-5c-1.9-2.2-3.1-4.4-3.8-6.8
		c-1.1-3.7-1.6-7-1.6-9.8v-34.6h18v35.6c0,3.1,0.9,5.7,2.7,7.5c1.7,1.8,4.2,2.7,7.3,2.7c3.1,0,5.5-0.9,7.3-2.7
		c1.7-1.7,2.7-4.2,2.7-7.5L114.4,367.6L114.4,367.6z"/>
	<path id="XMLID_50_" class="st0" d="M144.4,367.6h16.8l21.9,32.3v-32.3h17v58.3h-17l-21.8-32v32h-17L144.4,367.6L144.4,367.6z"/>
</g>
</svg>
